<svg width="16" height="16" viewBox="0 0 16 16" fill="none" xmlns="http://www.w3.org/2000/svg">
<path d="M7.12425 0.530005C7.20804 0.370157 7.33375 0.236323 7.48781 0.142957C7.64186 0.0495919 7.81841 0.000244141 7.99838 0.000244141C8.17834 0.000244141 8.35489 0.0495919 8.50894 0.142957C8.663 0.236323 8.78871 0.370157 8.87251 0.530005L10.7136 4.04615C10.7817 4.17637 10.8779 4.28973 10.9951 4.37803C11.1123 4.46633 11.2476 4.52736 11.3912 4.55667L15.2087 5.33286C15.3789 5.36753 15.537 5.44663 15.6671 5.56219C15.7971 5.67775 15.8945 5.82568 15.9494 5.99106C16.0043 6.15644 16.0147 6.33343 15.9797 6.50417C15.9447 6.67491 15.8655 6.83336 15.75 6.96356L13.0357 10.0178C12.943 10.1224 12.8733 10.2456 12.8315 10.3792C12.7896 10.5128 12.7764 10.6538 12.7928 10.793L13.2748 14.892C13.2957 15.0692 13.2687 15.2487 13.1964 15.4118C13.1242 15.5748 13.0094 15.7152 12.8643 15.8183C12.7192 15.9213 12.549 15.9831 12.3718 15.9972C12.1946 16.0112 12.0169 15.977 11.8574 15.8982L8.43396 14.205C8.29828 14.138 8.14909 14.1032 7.99788 14.1032C7.84667 14.1032 7.69748 14.138 7.5618 14.205L4.13443 15.8982C3.97496 15.977 3.79724 16.0112 3.62002 15.9972C3.44279 15.9831 3.27264 15.9213 3.1275 15.8183C2.98236 15.7152 2.86762 15.5748 2.79538 15.4118C2.72314 15.2487 2.69608 15.0692 2.71705 14.892L3.19906 10.793C3.21543 10.6538 3.20224 10.5128 3.16036 10.3792C3.11847 10.2456 3.04885 10.1224 2.95608 10.0178L0.249737 6.96257C0.134508 6.83256 0.0554031 6.67441 0.0203728 6.504C-0.0146574 6.33359 -0.00437924 6.15693 0.0501745 5.99177C0.104728 5.82661 0.201636 5.67877 0.331158 5.56311C0.46068 5.44745 0.618253 5.36804 0.788043 5.33286L4.60162 4.55667C4.74522 4.52736 4.88052 4.46633 4.99772 4.37803C5.11491 4.28973 5.21106 4.17637 5.27919 4.04615L7.12425 0.530005Z" fill="#FFD500"/>
</svg>
